<svg height="512pt" viewBox="0 0 512 512" width="512pt" xmlns="http://www.w3.org/2000/svg"><path d="m4 29.347656h299.816406v123.621094h-299.816406c-2.210938 0-4-1.792969-4-4v-115.621094c0-2.210937 1.789062-4 4-4zm0 0" fill="#ffd659"/><path d="m303.816406 152.96875h-47.808594v-123.625h47.808594zm0 0" fill="#ffbd54"/><path d="m478.53125 4v299.816406h-123.621094v-299.816406c0-2.210938 1.792969-4 4-4h115.625c2.207032 0 3.996094 1.789062 3.996094 4zm0 0" fill="#47d5e6"/><path d="m478.53125 4v299.816406h-30.902344v-303.816406h26.902344c2.210938 0 4 1.789062 4 4zm0 0" fill="#22c0d4"/><path d="m508 482.652344h-298.359375v-123.621094h298.359375c2.210938 0 4 1.792969 4 4v115.621094c0 2.210937-1.789062 4-4 4zm0 0" fill="#685c79"/><path d="m508 482.652344h-26.90625v-123.621094h26.90625c2.210938 0 4 1.792969 4 4v115.621094c0 2.210937-1.789062 4-4 4zm0 0" fill="#594f69"/><path d="m377.324219 159.496094c16.167969 13.480468 31.398437 20.269531 53.722656 20.269531l37.0625-1.699219c8.019531 0 14.980469-5.996094 15.71875-14.007812.222656-2.402344-.113281-4.699219-.882813-6.785156-.152343-.410157.132813-.84375.566407-.84375h12.644531c8.320312 0 15.472656-6.433594 15.828125-14.773438.324219-7.539062-4.742187-13.945312-11.652344-15.675781-.488281-.121094-.488281-.792969 0-.914063 6.910157-1.726562 11.976563-8.136718 11.652344-15.675781-.355469-8.339844-7.507813-14.773437-15.828125-14.773437h-1.410156c-.539063 0-.65625-.753907-.144532-.921876 4.5625-1.519531 11.59375-5.347656 11.597657-14.527343 0-8.574219-7.117188-15.457031-15.667969-15.457031h-8.160156c-.535156 0-.660156-.75-.148438-.917969 4.511719-1.464844 11.164063-5.160157 11.308594-14.234375.136719-8.695313-7.019531-15.753906-15.683594-15.753906h-8.347656v.003906l-15.398438-.003906v.003906h-89.441406c-14.210937 0-25.730468 11.554687-25.730468 25.8125v52.707031c0 20.351563 18.628906 31.683594 38.394531 48.167969zm0 0" fill="#ebad88"/><path d="m500.332031 125.984375c-.472656-.117187-.472656-.796875 0-.914063 6.910157-1.726562 11.976563-8.136718 11.652344-15.675781-.355469-8.339843-7.507813-14.773437-15.828125-14.773437h-1.410156c-.539063 0-.65625-.753906-.144532-.925782 4.5625-1.515624 11.59375-5.34375 11.597657-14.523437 0-8.578125-7.117188-15.457031-15.667969-15.457031h-8.160156c-.535156 0-.660156-.75-.148438-.917969 4.515625-1.464844 11.167969-5.160156 11.308594-14.234375.136719-8.695312-7.015625-15.753906-15.683594-15.753906h-30.886718c8.65625.011718 15.804687 7.0625 15.664062 15.753906-.042969 2.707031-1.066406 5.066406-2.480469 7.042969-2.773437 3.871093-1.410156 9.253906 2.929688 11.210937 6.070312 2.738282 12.21875 6.867188 12.21875 12.355469 0 2.679687-.988281 5.027344-2.386719 7.015625-3.183594 4.53125-2.4375 10.660156 1.914062 14.085938 3.3125 2.613281 6.117188 5.789062 6.257813 9.121093.140625 3.308594-.753906 6.402344-2.390625 8.976563-2.75 4.328125-2.75 9.984375 0 14.308594 1.636719 2.574218 2.53125 5.667968 2.390625 8.976562-.355469 8.339844-7.507813 14.777344-15.828125 14.777344h-4.308594c-4.246094 0-7.640625 3.3125-8.011718 7.546875 0 .027343-.007813.050781-.007813.082031 0 14.707031-34.542969 14.867188-34.542969 14.867188 3.980469.550781 8.175782.835937 12.664063.835937l37.066406-1.699219c8.019531 0 14.980469-5.996094 15.71875-14.003906.003906-.027344.003906-.054688.007813-.082031.367187-4.234375 3.761718-7.546875 8.011718-7.546875h4.308594c8.320312 0 15.472656-6.4375 15.828125-14.777344.324219-7.535156-4.742187-13.945312-11.652344-15.671875zm0 0" fill="#e8916f"/><path d="m348.71875 28.210938v125.917968c0 2.210938-1.789062 4-4 4h-53.808594c-2.210937 0-4-1.789062-4-4v-125.917968c0-2.210938 1.789063-4 4-4h53.808594c2.210938 0 4 1.789062 4 4zm0 0" fill="#dcdfe8"/><path d="m317.8125 24.210938h26.902344c2.210937 0 4 1.789062 4 4v125.921874c0 2.210938-1.789063 4-4 4h-26.902344zm0 0" fill="#cbcdd9"/><path d="m348.382812 377.324219c-13.480468 16.167969-20.269531 31.398437-20.269531 53.722656l1.699219 37.0625c0 8.019531 5.996094 14.980469 14.007812 15.71875 2.402344.222656 4.699219-.113281 6.785157-.882813.410156-.152343.84375.132813.84375.566407v12.644531c0 8.320312 6.433593 15.472656 14.773437 15.828125 7.539063.324219 13.949219-4.742187 15.675782-11.652344.121093-.488281.792968-.488281.914062 0 1.726562 6.910157 8.136719 11.976563 15.675781 11.652344 8.339844-.355469 14.773438-7.507813 14.773438-15.828125v-1.410156c0-.539063.753906-.65625.921875-.144532 1.519531 4.5625 5.347656 11.59375 14.527344 11.597657 8.574218 0 15.457031-7.117188 15.457031-15.667969v-8.160156c0-.535156.75-.660156.917969-.148438 1.464843 4.511719 5.160156 11.164063 14.234374 11.308594 8.695313.136719 15.753907-7.019531 15.753907-15.683594v-23.746094h-.003907v-89.441406c0-14.210937-11.554687-25.730468-25.8125-25.730468h-52.707031c-20.351562 0-31.683593 18.628906-48.167969 38.394531zm0 0" fill="#ebad88"/><path d="m475.070312 454.101562h-.003906v-89.441406c0-14.210937-11.554687-25.730468-25.8125-25.730468h-30.882812c14.246094.015624 25.789062 14.488281 25.789062 32.339843 0 0 .753906 110.441407.921875 110.953125 1.464844 4.515625 5.160157 11.167969 14.234375 11.308594 8.695313.136719 15.75-7.015625 15.75-15.683594v-8.34375zm0 0" fill="#e8916f"/><path d="m483.671875 290.910156v53.808594c0 2.210938-1.792969 4-4 4h-125.921875c-2.210938 0-4-1.789062-4-4v-53.808594c0-2.210937 1.789062-4 4-4h125.921875c2.207031 0 4 1.789063 4 4zm0 0" fill="#dcdfe8"/><path d="m380.652344 348.714844v-61.808594h-26.90625c-2.207032 0-4 1.789062-4 4v53.808594c0 2.210937 1.792968 4 4 4zm0 0" fill="#cbcdd9"/><path d="m483.671875 344.714844v-53.808594c0-2.210938-1.792969-4-4-4h-26.90625v61.808594h26.90625c2.207031 0 4-1.789063 4-4zm0 0" fill="#cbcdd9"/><path d="m33.46875 508v-299.816406h123.621094v299.816406c0 2.210938-1.792969 4-4 4h-115.621094c-2.210938 0-4-1.789062-4-4zm0 0" fill="#ff2c5c"/><path d="m126.183594 512v-303.816406h30.90625v299.816406c0 2.210938-1.792969 4-4 4zm0 0" fill="#e62753"/><path d="m134.675781 352.503906c-16.167969-13.480468-31.398437-20.269531-53.722656-20.269531l-37.0625 1.699219c-8.019531 0-14.980469 5.996094-15.71875 14.007812-.222656 2.402344.113281 4.699219.882813 6.785156.152343.410157-.132813.84375-.566407.84375h-12.644531c-8.320312 0-15.472656 6.433594-15.828125 14.773438-.324219 7.539062 4.742187 13.945312 11.652344 15.675781.488281.121094.488281.792969 0 .914063-6.910157 1.726562-11.976563 8.136718-11.652344 15.675781.355469 8.339844 7.507813 14.773437 15.828125 14.773437h1.410156c.539063 0 .65625.753907.144532.921876-4.5625 1.519531-11.59375 5.347656-11.597657 14.527343 0 8.574219 7.117188 15.457031 15.667969 15.457031h8.160156c.535156 0 .660156.75.148438.917969-4.511719 1.464844-11.164063 5.160157-11.308594 14.234375-.136719 8.695313 7.019531 15.753906 15.683594 15.753906h8.347656v-.003906l15.398438.003906v-.003906h89.441406c14.210937 0 25.730468-11.554687 25.730468-25.8125v-52.707031c0-20.351563-18.628906-31.683594-38.394531-48.167969zm0 0" fill="#ebad88"/><path d="m134.675781 352.503906c-16.167969-13.480468-31.398437-20.269531-53.722656-20.269531l-18.238281.835937c15.808594 2.179688 28.140625 8.664063 41.054687 19.433594 19.765625 16.484375 38.394531 27.816406 38.394531 48.160156v52.714844c0 14.253906-11.519531 25.808594-25.730468 25.808594h30.90625c14.210937 0 25.730468-11.554688 25.730468-25.808594v-52.714844c0-20.34375-18.628906-31.675781-38.394531-48.160156zm0 0" fill="#e8916f"/><path d="m225.089844 357.871094v125.917968c0 2.210938-1.789063 4-4 4h-53.808594c-2.210938 0-4-1.789062-4-4v-125.917968c0-2.210938 1.789062-4 4-4h53.808594c2.210937 0 4 1.789062 4 4zm0 0" fill="#dcdfe8"/><path d="m221.09375 487.789062h-26.902344v-133.921874h26.902344c2.210938 0 4 1.789062 4 4v125.921874c0 2.210938-1.789062 4-4 4zm0 0" fill="#cbcdd9"/><path d="m163.617188 134.675781c13.480468-16.167969 20.269531-31.398437 20.269531-53.722656l-1.699219-37.0625c0-8.019531-5.996094-14.980469-14.007812-15.71875-2.402344-.222656-4.699219.113281-6.785157.882813-.410156.152343-.84375-.132813-.84375-.566407v-12.644531c0-8.320312-6.433593-15.472656-14.773437-15.828125-7.539063-.324219-13.949219 4.742187-15.675782 11.652344-.121093.488281-.792968.488281-.914062 0-1.726562-6.910157-8.136719-11.976563-15.675781-11.652344-8.339844.355469-14.773438 7.507813-14.773438 15.828125v1.410156c0 .539063-.753906.65625-.921875.144532-1.519531-4.5625-5.347656-11.59375-14.527344-11.597657-8.574218 0-15.453124 7.117188-15.453124 15.667969v8.160156c0 .535156-.75.660156-.917969.148438-1.464844-4.511719-5.160157-11.164063-14.234375-11.308594-8.695313-.136719-15.753906 7.019531-15.753906 15.683594v113.1875c0 14.210937 11.558593 25.730468 25.8125 25.730468h52.710937c20.347656 0 31.679687-18.628906 48.164063-38.394531zm0 0" fill="#ebad88"/><path d="m182.1875 43.890625c0-8.019531-5.996094-14.980469-14.003906-15.71875-2.40625-.222656-4.699219.113281-6.789063.882813-.40625.152343-.839843-.132813-.839843-.566407v-12.644531c0-8.320312-6.4375-15.472656-14.777344-15.828125-7.539063-.324219-13.945313 4.742187-15.671875 11.652344-.0625.242187-.261719.367187-.457031.367187v9.996094c0 .453125.433593.75.839843.59375 2.089844-.800781 4.382813-1.152344 6.789063-.921875 8.007812.769531 14.003906 8.042969 14.003906 16.417969l1.699219 38.722656c0 23.316406-6.785157 39.226562-20.269531 56.117188-16.484376 20.648437-27.816407 40.109374-48.160157 40.109374h-21.808593.003906 52.710937c20.34375 0 31.675781-18.625 48.160157-38.394531 13.484374-16.167969 20.269531-31.398437 20.269531-53.71875zm0 0" fill="#e8916f"/><path d="m162.25 167.28125v53.808594c0 2.210937-1.789062 4-4 4h-125.921875c-2.207031 0-4-1.789063-4-4v-53.808594c0-2.210938 1.792969-4 4-4h125.921875c2.210938 0 4 1.789062 4 4zm0 0" fill="#dcdfe8"/><path d="m131.347656 163.285156v61.808594h26.90625c2.207032 0 4-1.789062 4-4v-53.808594c0-2.210937-1.792968-4-4-4zm0 0" fill="#cbcdd9"/><g fill="#685c79"><path d="m328.230469 58.710938c0 4.140624-3.359375 7.5-7.5 7.5h-33.820313v-15h33.820313c4.140625 0 7.5 3.359374 7.5 7.5zm0 0"/><path d="m456.671875 286.910156v33.820313c0 4.140625-3.363281 7.5-7.5 7.5-4.140625 0-7.5-3.359375-7.5-7.5v-33.820313zm0 0"/><path d="m225.089844 445.789062v15h-33.820313c-4.140625 0-7.5-3.359374-7.5-7.5 0-4.140624 3.359375-7.5 7.5-7.5zm0 0"/><path d="m70.328125 191.269531v33.820313h-15v-33.820313c0-4.140625 3.363281-7.5 7.5-7.5 4.140625 0 7.5 3.359375 7.5 7.5zm0 0"/></g></svg>